<?xml version="1.0" encoding="UTF-8" standalone="no"?>
<!DOCTYPE svg PUBLIC "-//W3C//DTD SVG 1.1//EN" "http://www.w3.org/Graphics/SVG/1.1/DTD/svg11.dtd">
<svg width="100%" height="100%" viewBox="0 0 89 21" version="1.1" xmlns="http://www.w3.org/2000/svg" xmlns:xlink="http://www.w3.org/1999/xlink" xml:space="preserve" xmlns:serif="http://www.serif.com/" style="fill-rule:evenodd;clip-rule:evenodd;stroke-linejoin:round;stroke-miterlimit:2;">
    <g transform="matrix(1,0,0,1,0,0.0003)">
        <g id="Components">
            <g transform="matrix(1,0,0,1,27.8908,3.0337)">
                <path d="M0,-0.566C0.337,-0.566 0.543,-0.606 0.708,-0.697C0.93,-0.828 1.062,-1.1 1.063,-1.438C1.063,-1.776 0.932,-2.048 0.71,-2.18C0.545,-2.271 0.34,-2.312 0.002,-2.313L-2.104,-2.316L-2.106,-0.569L0,-0.566ZM-2.11,2.462L-2.957,2.461L-2.95,-3.034L0.078,-3.029C1.287,-3.027 1.911,-2.508 1.91,-1.486C1.909,-0.885 1.695,-0.539 1.135,-0.202C1.702,0.079 1.8,0.318 1.848,1.57C1.88,2.188 1.938,2.303 2.176,2.287L2.176,2.468L1.131,2.467C1.041,2.129 1.041,2.063 0.993,1.371C0.936,0.449 0.69,0.168 -0.075,0.151L-2.107,0.148L-2.11,2.462Z" style="fill-rule:nonzero;"/>
            </g>
            <g transform="matrix(1,0,0,1,31.584,0.0149)">
                <path d="M0,5.489L0.008,-0.006L4.499,0.001L4.498,0.767L0.854,0.762L0.852,2.303L4.282,2.308L4.281,3.073L0.851,3.069L0.848,4.724L4.567,4.729L4.566,5.495L0,5.489Z" style="fill-rule:nonzero;"/>
            </g>
            <g transform="matrix(1,0,0,1,40.2719,4.5721)">
                <path d="M0,-3.603L-1.007,-1.356L1.017,-1.353L0,-3.603ZM-1.32,-0.639L-2.038,0.941L-3.001,0.94L-0.443,-4.551L0.511,-4.55L3.071,0.948L2.05,0.947L1.337,-0.636L-1.32,-0.639Z" style="fill-rule:nonzero;"/>
            </g>
            <g transform="matrix(1,0,0,1,44.5907,0.0334)">
                <path d="M0,5.489L0.008,-0.006L0.855,-0.005L0.848,4.724L4.279,4.728L4.278,5.495L0,5.489Z" style="fill-rule:nonzero;"/>
            </g>
            <g transform="matrix(0.00145587,-0.999999,-0.999999,-0.00145587,53.358,3.2143)">
                <rect x="-2.32" y="2.323" width="5.494" height="0.847"/>
            </g>
            <g transform="matrix(1,0,0,1,54.3641,0.0386)">
                <path d="M0,5.497L0.007,0.769L-2.091,0.766L-2.09,-0.001L2.969,0.007L2.968,0.773L0.854,0.77L0.847,5.498L0,5.497Z" style="fill-rule:nonzero;"/>
            </g>
            <g transform="matrix(1,0,0,1,60.6666,0.0474)">
                <path d="M0,5.497L0.003,3.215L-2.411,-0.001L-1.317,0.001L0.448,2.491L2.237,0.006L3.273,0.007L0.85,3.216L0.847,5.498L0,5.497Z" style="fill-rule:nonzero;"/>
            </g>
            <g transform="matrix(1,0,0,1,17.5263,11.5162)">
                <path d="M0,6.215C1.874,6.215 3.076,4.842 3.076,3.108C3.076,1.374 1.874,-0 0,-0C-1.892,-0 -3.077,1.374 -3.077,3.108C-3.077,4.842 -1.892,6.215 0,6.215M0,-2.386C3.342,-2.386 5.711,0.035 5.711,3.108C5.711,6.181 3.342,8.601 0,8.601C-3.36,8.601 -5.711,6.181 -5.711,3.108C-5.711,0.035 -3.36,-2.386 0,-2.386" style="fill-rule:nonzero;"/>
            </g>
            <g transform="matrix(1,0,0,1,27.2472,12.4948)">
                <path d="M0,4.258C0,4.859 0.495,5.339 1.096,5.339C1.75,5.339 2.157,4.979 2.157,4.447C2.157,3.674 1.114,3.451 0.247,3.159C-1.538,2.541 -2.529,1.734 -2.529,-0.034C-2.529,-1.854 -0.92,-3.365 1.079,-3.365C3.43,-3.365 4.544,-1.905 4.685,0L2.245,0C2.245,-0.583 1.874,-1.064 1.149,-1.064C0.583,-1.064 0.035,-0.738 0.035,-0.068C0.035,0.704 1.008,0.842 1.909,1.099C3.801,1.648 4.685,2.678 4.685,4.292C4.685,6.112 3.094,7.623 1.096,7.623C-1.22,7.623 -2.529,6.112 -2.529,4.258L0,4.258Z" style="fill-rule:nonzero;"/>
            </g>
            <g transform="matrix(1,0,0,1,35.7132,17.5424)">
                <path d="M0,-5.837L-2.369,-5.837L-2.369,-8.069L5.022,-8.069L5.022,-5.837L2.617,-5.837L2.617,2.232L0,2.232L0,-5.837Z" style="fill-rule:nonzero;"/>
            </g>
            <g transform="matrix(1,0,0,1,45.9456,19.7744)">
                <path d="M0,-10.644L-0.458,-10.644L-5.621,0L-2.827,0L-2.316,-1.064L-0.265,-5.476L-0.228,-5.476L1.875,-1.064L2.406,0L5.201,0L0,-10.644Z" style="fill-rule:nonzero;"/>
            </g>
            <g transform="matrix(1,0,0,1,56.9845,15.3102)">
                <path d="M0,-1.373C0.583,-1.373 0.972,-1.957 0.972,-2.557C0.972,-3.158 0.513,-3.691 -0.071,-3.691L-2.086,-3.691L-2.086,-1.373L0,-1.373ZM-4.686,-5.837L-0.248,-5.837C2.033,-5.837 3.519,-4.497 3.519,-2.557C3.519,-0.755 2.581,0.258 1.008,0.636L3.872,4.464L0.619,4.464L-2.086,0.618L-2.086,4.464L-4.686,4.464L-4.686,-5.837Z" style="fill-rule:nonzero;"/>
            </g>
            <g transform="matrix(1,0,0,1,0,9.1304)">
                <rect x="62.834" y="0.343" width="2.599" height="10.301"/>
            </g>
            <g transform="matrix(1,0,0,1,83.6751,19.7744)">
                <path d="M0,-10.644L-0.461,-10.644L-5.624,0L-2.829,0L-2.316,-1.064L-0.265,-5.476L-0.23,-5.476L1.873,-1.064L2.404,0L5.198,0L0,-10.644Z" style="fill-rule:nonzero;"/>
            </g>
            <g transform="matrix(1,0,0,1,11.8825,9.4766)">
                <path d="M0,10.283L-2.776,10.283L-6.46,4.935L-2.965,0L-0.189,0L-3.719,4.884L0,10.283Z" style="fill-rule:nonzero;"/>
            </g>
            <g transform="matrix(-1,0,0,1,5.038,9.1174)">
                <rect x="0" y="0.358" width="5.038" height="10.284"/>
            </g>
            <g transform="matrix(1,0,0,1,77.3477,9.4766)">
                <path d="M0,10.283L-2.776,10.283L-6.46,4.935L-2.965,0L-0.189,0L-3.719,4.884L0,10.283Z" style="fill-rule:nonzero;"/>
            </g>
            <g transform="matrix(1,0,0,1,0,9.1174)">
                <rect x="67.985" y="0.358" width="2.52" height="10.284"/>
            </g>
        </g>
    </g>
</svg>
