<svg preserveAspectRatio="xMidYMid meet" data-bbox="0 0 357.164 131.348" viewBox="0 0 357.164 131.348" height="131.35" width="357.165" xmlns="http://www.w3.org/2000/svg" data-type="color" role="presentation" aria-hidden="true" wixshapeid="8d2f15_6ea4e1f1fb1a4a56a7c5c0a948b5786e.svg">
    <g>
        <path d="m355.536 110.5-12.787-12.152-29.726-46.644 23.32 5.547-1.396 5.864 5.709 1.358 4.031-16.955-5.71-1.358-1.38 5.805-27.785-6.605-1.895-.454-36.11-8.595L249.26 0l-4.612 2.864 44.314 71.362-15.372 24.115-12.894 12.159-1.64 1.545v17.247h98.108v-17.237l-1.628-1.555zm-47.372-56.305L335.68 97.37h-25.952l-14.349-23.102 12.785-20.073zm-27.204-3.15-3.372-5.427-1.711-2.76 27.418 6.531 1.485.353-12.582 19.404-11.238-18.101zm11.18 28.301 11.196 18.024h-22.684l11.488-18.024zm-15.36 23.458h62.769l8.102 7.695H268.61l8.17-7.695zm74.952 21.053h-87.247v-7.929h87.247v7.929z" fill="#00b4aa" data-color="1"></path>
        <path d="M63.832 54.524c-3.227-2.437-7.096-4.262-11.619-5.482-4.524-1.22-9.536-1.834-15.05-1.834H0v82.606h27.609v-22.422h8.97c5.578 0 10.677-.646 15.277-1.943 4.6-1.306 8.555-3.245 11.862-5.847 3.301-2.594 5.858-5.8 7.671-9.614 1.807-3.81 2.708-8.199 2.708-13.155v-.239c0-4.878-.901-9.162-2.708-12.858-1.813-3.698-4.33-6.772-7.557-9.212zM46.844 78.6c0 2.986-1.085 5.252-3.245 6.788-2.161 1.526-5.013 2.296-8.556 2.296h-7.434V69.275h7.548c3.696 0 6.567.769 8.614 2.306 2.046 1.536 3.073 3.791 3.073 6.779v.24z" fill="#00b4aa" data-color="1"></path>
        <path d="M144.606 85.036c-3.104-2.084-6.819-3.797-11.149-5.14-4.324-1.333-9.125-2.477-14.398-3.42-2.197-.394-4.013-.787-5.424-1.181-1.423-.394-2.535-.805-3.362-1.238-.826-.433-1.402-.881-1.718-1.352-.307-.483-.47-.99-.47-1.537v-.243c0-1.018.489-1.843 1.478-2.478.98-.624 2.495-.939 4.542-.939 3.851 0 7.963.652 12.33 1.948 4.37 1.298 8.518 3.361 12.446 6.195L152.335 57c-4.791-3.774-10.209-6.608-16.22-8.488-6.02-1.893-13.039-2.834-21.069-2.834-5.668 0-10.679.701-15.037 2.124-4.37 1.411-8.031 3.38-10.978 5.895-2.947 2.525-5.196 5.476-6.733 8.853-1.524 3.384-2.296 7.041-2.296 10.977v.231c0 4.407.944 8.086 2.834 11.036 1.883 2.947 4.419 5.405 7.606 7.372 3.19 1.97 6.887 3.584 11.094 4.84a150.914 150.914 0 0 0 13.279 3.307c4.398.864 7.415 1.688 9.026 2.478 1.617.787 2.422 1.767 2.422 2.946v.24c0 1.104-.557 1.97-1.651 2.593-1.106.634-2.919.941-5.436.941-4.88 0-9.798-.74-14.751-2.237-4.954-1.5-9.672-3.977-14.155-7.434l-14.751 17.585c5.273 4.637 11.542 8.125 18.823 10.438 7.268 2.323 15.126 3.485 23.537 3.485 5.513 0 10.526-.651 15.049-1.949 4.521-1.296 8.353-3.148 11.503-5.553 3.15-2.387 5.59-5.319 7.318-8.786 1.73-3.457 2.593-7.354 2.593-11.687v-.23c0-4.168-.845-7.711-2.535-10.621-1.69-2.909-4.091-5.403-7.201-7.486z" fill="#00b4aa" data-color="1"></path>
        <path d="m218.3 83.67-29.377-36.462h-25.842v82.607h27.368V91.699l30.684 38.116h24.546V47.208H218.3V83.67z" fill="#00b4aa" data-color="1"></path>
    </g>
</svg>