<svg width="200" height="200" viewBox="0 0 200 200" fill="none" xmlns="http://www.w3.org/2000/svg">
<g clip-path="url(#clip0_7_2)">
<path d="M100 200C44.86 200 0 155.14 0 100C0 44.86 44.86 0 100 0C155.14 0 200 44.86 200 100C200 155.14 155.14 200 100 200ZM100 9.52375C50.1113 9.52375 9.52375 50.1113 9.52375 100C9.52375 149.889 50.1113 190.476 100 190.476C149.889 190.476 190.476 149.889 190.476 100C190.476 50.1113 149.889 9.52375 100 9.52375Z" fill="white"/>
<path d="M90.4762 130.159C89.8509 130.159 89.2316 130.037 88.6539 129.797C88.0762 129.558 87.5515 129.207 87.11 128.764L55.3637 97.0187C54.4935 96.1211 54.0111 94.9172 54.0207 93.667C54.0303 92.4168 54.5312 91.2205 55.4152 90.3364C56.2991 89.4523 57.4953 88.9512 58.7455 88.9413C59.9957 88.9315 61.1997 89.4136 62.0975 90.2837L90.4762 118.662L137.902 71.2362C138.8 70.3661 140.004 69.884 141.254 69.8938C142.505 69.9037 143.701 70.4048 144.585 71.2889C145.469 72.173 145.97 73.3693 145.979 74.6195C145.989 75.8697 145.506 77.0736 144.636 77.9712L93.8425 128.765C93.4008 129.207 92.876 129.558 92.2983 129.798C91.7207 130.037 91.1015 130.159 90.4762 130.159Z" fill="white"/>
</g>
<defs>
<clipPath id="clip0_7_2">
<rect width="200" height="200" fill="white"/>
</clipPath>
</defs>
</svg>
