<svg xmlns="http://www.w3.org/2000/svg" viewBox="0 0 20 14" aria-hidden="true">
  <rect width="20" height="14" fill="#b22234"/>
  <path fill="#fff" d="M0 1h20v1H0zm0 2h20v1H0zm0 2h20v1H0zm0 2h20v1H0zm0 2h20v1H0zm0 2h20v1H0z"/>
  <rect width="8" height="7" fill="#3c3b6e"/>
  <g fill="#fff">
    <circle cx="1.2" cy="1.2" r=".45"/><circle cx="2.8" cy="1.2" r=".45"/><circle cx="4.4" cy="1.2" r=".45"/><circle cx="6" cy="1.2" r=".45"/>
    <circle cx="2" cy="2.4" r=".45"/><circle cx="3.6" cy="2.4" r=".45"/><circle cx="5.2" cy="2.4" r=".45"/>
    <circle cx="1.2" cy="3.6" r=".45"/><circle cx="2.8" cy="3.6" r=".45"/><circle cx="4.4" cy="3.6" r=".45"/><circle cx="6" cy="3.6" r=".45"/>
    <circle cx="2" cy="4.8" r=".45"/><circle cx="3.6" cy="4.8" r=".45"/><circle cx="5.2" cy="4.8" r=".45"/>
    <circle cx="1.2" cy="6" r=".45"/><circle cx="2.8" cy="6" r=".45"/><circle cx="4.4" cy="6" r=".45"/><circle cx="6" cy="6" r=".45"/>
  </g>
</svg>
