<svg width="200" height="200" viewBox="0 0 200 200" fill="none" xmlns="http://www.w3.org/2000/svg">
<g clip-path="url(#clip0_7_6)">
<path d="M197.581 67.2198L103.831 1.19149C102.735 0.419248 101.387 9.15527e-05 100 9.15527e-05C98.6126 9.15527e-05 97.2647 0.419248 96.1687 1.19149L2.41875 67.2198C1.66559 67.7499 1.05605 68.4294 0.636804 69.2064C0.217559 69.9833 -0.000271091 70.837 2.53192e-07 71.7021V175.461C2.53192e-07 188.991 12.1484 200 27.0828 200H172.917C187.852 200 200 188.991 200 175.461V71.7021C200 70.837 199.782 69.9833 199.363 69.2064C198.944 68.4294 198.334 67.7499 197.581 67.2198ZM125 188.652H75V105.674H125V188.652ZM187.5 175.461C187.5 182.735 180.958 188.652 172.917 188.652H137.5V100C137.5 98.4952 136.842 97.0521 135.669 95.988C134.497 94.924 132.908 94.3262 131.25 94.3262H68.75C67.0924 94.3262 65.5027 94.924 64.3306 95.988C63.1585 97.0521 62.5 98.4952 62.5 100V188.652H27.0828C19.0422 188.652 12.5 182.735 12.5 175.461V74.4808L100 12.8553L187.5 74.4808V175.461Z" fill="white"/>
</g>
<defs>
<clipPath id="clip0_7_6">
<rect width="200" height="200" fill="white"/>
</clipPath>
</defs>
</svg>
