<svg width="200" height="200" viewBox="0 0 200 200" fill="none" xmlns="http://www.w3.org/2000/svg">
<g clip-path="url(#clip0_7_9)">
<path fill-rule="evenodd" clip-rule="evenodd" d="M99.9993 0C155.141 0 200 44.8587 200 99.9993C200 155.141 155.141 200 99.9993 200C44.8587 200 0 155.141 0 99.9993C0 44.8587 44.8587 0 99.9993 0ZM99.9993 11.7642C51.3415 11.7642 11.7642 51.3415 11.7642 99.9993C11.7642 148.658 51.3415 188.234 99.9993 188.234C148.658 188.234 188.234 148.658 188.234 99.9993C188.234 51.3415 148.658 11.7642 99.9993 11.7642ZM105.879 41.1768V54.6959C121.115 57.5067 128.339 70.1194 128.679 70.7194L118.386 76.413C118.15 76.0121 112.245 65.8954 99.9739 65.8474C93.8087 66.0253 88.6332 67.7532 85.4567 71.2827C83.1146 73.8944 82.0445 77.2361 82.4327 80.6836C83.1739 87.2243 88.1504 89.884 103.75 95.0355C116.82 99.5419 127.704 104.366 129.244 117.978C130.033 124.812 127.927 131.425 123.303 136.565C119.021 141.354 112.938 144.33 105.879 145.402V158.825H94.1151V145.296C78.8921 142.495 71.6568 129.883 71.3264 129.283L81.597 123.555C81.844 123.989 87.7622 134.095 100.033 134.154C106.162 133.966 111.374 132.248 114.539 128.707C116.891 126.107 117.963 122.754 117.562 119.307C116.904 113.531 113.127 110.719 99.9852 106.177C85.8563 101.507 72.4558 97.0713 70.7504 82.0247C69.9627 75.189 72.0803 68.5777 76.6911 63.4248C80.9744 58.6488 87.0563 55.6601 94.1151 54.59V41.1783L105.879 41.1768Z" fill="white"/>
</g>
<defs>
<clipPath id="clip0_7_9">
<rect width="200" height="200" fill="white"/>
</clipPath>
</defs>
</svg>
